<svg width="29" height="35" viewBox="0 0 29 35" fill="none" xmlns="http://www.w3.org/2000/svg">
<g opacity="0.3">
<path opacity="0.3" d="M20.057 7.11617C19.2914 7.11542 18.5575 6.80744 18.0162 6.25984C17.4749 5.71224 17.1704 4.96975 17.1697 4.19532V0.139893H4.26801C3.26867 0.139893 2.31026 0.541504 1.60363 1.25636C0.896986 1.97121 0.5 2.94074 0.5 3.95169V26.9302C0.501484 27.9402 0.899125 28.9083 1.6056 29.6219C2.31208 30.3355 3.26964 30.7364 4.26801 30.7364H19.7545C20.2495 30.7365 20.7396 30.6381 21.1969 30.4466C21.6542 30.2551 22.0698 29.9744 22.4198 29.6204C22.7699 29.2664 23.0475 28.8462 23.237 28.3836C23.4264 27.921 23.5239 27.4253 23.5239 26.9246V7.1105L20.057 7.11617Z" fill="#00C650"/>
</g>
<path d="M23.5297 7.11587H20.0629C19.2974 7.11512 18.5635 6.80715 18.0222 6.25957C17.4809 5.712 17.1765 4.96954 17.1758 4.19515V0.139893L23.5297 7.11587Z" fill="#00C650"/>
<path d="M26.2524 24.3098H8.74476C7.50286 24.3098 6.49609 25.3283 6.49609 26.5846V31.8651C6.49609 33.1215 7.50286 34.1399 8.74476 34.1399H26.2524C27.4944 34.1399 28.5011 33.1215 28.5011 31.8651V26.5846C28.5011 25.3283 27.4944 24.3098 26.2524 24.3098Z" fill="#00C650"/>
<path d="M11.7792 30.3325V31.3594H10.7305V30.3325H11.7792Z" fill="white"/>
<path d="M15.5302 27.5011C15.8845 27.7912 16.1252 28.1994 16.2093 28.6527H15.1367C15.0652 28.4646 14.9387 28.303 14.7741 28.1895C14.6009 28.0746 14.3973 28.0158 14.1902 28.0209C14.0537 28.0168 13.9181 28.0443 13.7938 28.1015C13.6695 28.1588 13.5599 28.2441 13.4733 28.3509C13.2809 28.6026 13.1841 28.9157 13.2003 29.2334C13.184 29.5498 13.2809 29.8616 13.4733 30.1116C13.5602 30.2179 13.67 30.3026 13.7943 30.3593C13.9185 30.416 14.054 30.4432 14.1902 30.4388C14.3973 30.4439 14.6009 30.3851 14.7741 30.2702C14.9386 30.159 15.066 30 15.1395 29.8141H16.2121C16.1263 30.2659 15.8858 30.6727 15.533 30.9629C15.1544 31.2573 14.6855 31.4077 14.2084 31.3878C13.8326 31.3962 13.4616 31.3017 13.1345 31.1144C12.828 30.9351 12.5798 30.6693 12.4204 30.3496C12.2478 30.0023 12.1613 29.6178 12.1684 29.2292C12.1612 28.8401 12.2477 28.455 12.4204 28.1073C12.5798 27.7875 12.828 27.5217 13.1345 27.3425C13.4616 27.1552 13.8326 27.0608 14.2084 27.0691C14.6854 27.0525 15.153 27.2053 15.5302 27.5011Z" fill="white"/>
<path d="M19.6257 30.7816C19.505 30.9764 19.3322 31.1326 19.1273 31.232C18.8778 31.3501 18.6045 31.4074 18.3292 31.3991C17.9146 31.4161 17.5061 31.2942 17.167 31.0521C17.0173 30.9383 16.8948 30.7918 16.8085 30.6237C16.7222 30.4555 16.6744 30.2698 16.6686 30.0805H17.7481C17.7556 30.2232 17.8161 30.3577 17.9175 30.4572C18.0178 30.5522 18.1512 30.6031 18.2886 30.5989C18.4012 30.6047 18.5116 30.5661 18.5966 30.4912C18.6335 30.4543 18.6625 30.4101 18.6818 30.3614C18.701 30.3126 18.7102 30.2604 18.7086 30.2079C18.7099 30.1583 18.7014 30.109 18.6837 30.0628C18.6659 30.0166 18.6391 29.9744 18.605 29.9388C18.5315 29.8633 18.4439 29.8031 18.3474 29.7618C18.2438 29.715 18.1024 29.6598 17.9203 29.596C17.6981 29.5221 17.4811 29.4331 17.2707 29.3297C17.0977 29.2393 16.9492 29.1075 16.838 28.9459C16.7101 28.7498 16.6468 28.5177 16.6574 28.283C16.6517 28.0503 16.7177 27.8216 16.8464 27.6286C16.9787 27.4401 17.1606 27.2929 17.3715 27.2037C17.6154 27.1038 17.8771 27.0556 18.1402 27.062C18.5379 27.0407 18.9307 27.1593 19.2519 27.3977C19.389 27.5101 19.5012 27.6504 19.5813 27.8095C19.6614 27.9686 19.7075 28.1429 19.7167 28.3212H18.6204C18.6069 28.1966 18.5539 28.0799 18.4692 27.9884C18.4254 27.9464 18.3737 27.9139 18.3171 27.8927C18.2606 27.8715 18.2004 27.8621 18.1402 27.8651C18.0355 27.8597 17.9326 27.8941 17.8517 27.9614C17.8139 27.9975 17.7844 28.0416 17.7655 28.0906C17.7466 28.1396 17.7388 28.1923 17.7425 28.2447C17.7413 28.2917 17.7494 28.3384 17.7662 28.3822C17.783 28.426 17.8083 28.4659 17.8405 28.4997C17.9099 28.5736 17.9939 28.632 18.087 28.6711C18.185 28.715 18.3278 28.7717 18.507 28.8397C18.7333 28.9133 18.9538 29.0042 19.1665 29.1116C19.3409 29.2065 19.491 29.3413 19.6047 29.5054C19.7346 29.7039 19.7988 29.939 19.7882 30.1768C19.7892 30.3895 19.733 30.5986 19.6257 30.7816Z" fill="white"/>
<path d="M21.1359 27.1174L22.1622 30.3087L23.1886 27.1174H24.2737L22.8147 31.3583H21.5042L20.0508 27.1174H21.1359Z" fill="white"/>
<path d="M17.1435 21.4999H6.87331C5.9842 21.4999 5.26172 20.6047 5.26172 19.5027V11.9687C5.26172 10.8681 5.9842 9.9729 6.87331 9.9729H17.1435C18.0326 9.9729 18.7551 10.8681 18.7551 11.9687V19.5027C18.7551 20.6047 18.0326 21.4999 17.1435 21.4999ZM6.87331 10.9928C6.43926 10.9928 6.08502 11.4304 6.08502 11.9687V19.5027C6.08502 20.041 6.43926 20.4787 6.87331 20.4787H17.1435C17.5776 20.4787 17.9304 20.041 17.9304 19.5027V11.9687C17.9304 11.4304 17.5776 10.9928 17.1435 10.9928H6.87331Z" fill="#00C650"/>
<path d="M18.3498 16.9658H5.67969V17.9871H18.3498V16.9658Z" fill="#00C650"/>
<path d="M18.3498 13.4639H5.67969V14.4851H18.3498V13.4639Z" fill="#00C650"/>
<path d="M15.1033 10.4832H14.0938V20.9889H15.1033V10.4832Z" fill="#00C650"/>
<path d="M9.92749 10.4832H8.91797V20.9889H9.92749V10.4832Z" fill="#00C650"/>
</svg>
