<svg width="280" height="60" viewBox="0 0 280 60" fill="none" xmlns="http://www.w3.org/2000/svg">
<g clip-path="url(#clip0_475_5167)">
<rect width="280" height="60" rx="8" fill="transparent"/>
<rect width="1" height="70"/>
<line x1="3.53553" y1="-1.53553" x2="67.5355" y2="62.4645" stroke="white" stroke-width="2"/>
<line x1="18.5355" y1="-3.53553" x2="91.5355" y2="69.4645" stroke="white" stroke-width="2"/>
<line x1="28.5355" y1="-10.5355" x2="101.536" y2="62.4645" stroke="white" stroke-width="2"/>
<line x1="45.5355" y1="-10.5355" x2="118.536" y2="62.4645" stroke="white" stroke-width="2"/>
<line x1="63.5355" y1="-9.53553" x2="136.536" y2="63.4645" stroke="white" stroke-width="2"/>
<line x1="79.5355" y1="-10.5355" x2="152.536" y2="62.4645" stroke="white" stroke-width="2"/>
<line x1="95.5355" y1="-11.5355" x2="171.536" y2="64.4645" stroke="white" stroke-width="2"/>
<line x1="111.536" y1="-12.5355" x2="187.536" y2="63.4645" stroke="white" stroke-width="2"/>
<line x1="127.536" y1="-13.5355" x2="203.536" y2="62.4645" stroke="white" stroke-width="2"/>
<line x1="144.536" y1="-13.5355" x2="220.536" y2="62.4645" stroke="white" stroke-width="2"/>
<line x1="161.536" y1="-13.5355" x2="237.536" y2="62.4645" stroke="white" stroke-width="2"/>
<line x1="183.536" y1="-8.53553" x2="259.536" y2="67.4645" stroke="white" stroke-width="2"/>
<line x1="195.536" y1="-13.5355" x2="271.536" y2="62.4645" stroke="white" stroke-width="2"/>
<line x1="206.536" y1="-19.5355" x2="282.536" y2="56.4645" stroke="white" stroke-width="2"/>
<line x1="220.536" y1="-22.5355" x2="296.536" y2="53.4645" stroke="white" stroke-width="2"/>
<line x1="227.536" y1="-32.5355" x2="303.536" y2="43.4645" stroke="white" stroke-width="2"/>
<line x1="232.536" y1="-44.5355" x2="308.536" y2="31.4645" stroke="white" stroke-width="2"/>
<line x1="-8.46447" y1="3.46447" x2="55.5355" y2="67.4645" stroke="white" stroke-width="2"/>
<line x1="-25.4645" y1="3.46447" x2="38.5355" y2="67.4645" stroke="white" stroke-width="2"/>
<line x1="-34.4645" y1="11.4645" x2="29.5355" y2="75.4645" stroke="white" stroke-width="2"/>
</g>
<defs>
<clipPath id="clip0_475_5167">
<rect width="280" height="60" rx="8" fill="white"/>
</clipPath>
</defs>
</svg>
