<svg width="32" height="38" viewBox="0 0 32 38" fill="none" xmlns="http://www.w3.org/2000/svg">
<g opacity="0.3">
<path opacity="0.3" d="M22.3466 7.79759C21.4719 7.79675 20.6332 7.45251 20.0147 6.84044C19.3962 6.22837 19.0483 5.39847 19.0475 4.53288V0H4.30548C3.16359 0 2.06848 0.448893 1.26105 1.24791C0.453615 2.04692 0 3.13058 0 4.26056V29.9443C0.00169569 31.0732 0.456055 32.1553 1.26331 32.9529C2.07056 33.7506 3.1647 34.1986 4.30548 34.1986H22.0026C23.1434 34.1986 24.2375 33.7506 25.0448 32.9529C25.852 32.1553 26.3064 31.0732 26.3081 29.9443V7.79759H22.3466Z" fill="#FF9500"/>
</g>
<path d="M26.3114 7.79759H22.3499C21.4752 7.79675 20.6365 7.45251 20.018 6.84044C19.3995 6.22837 19.0516 5.39847 19.0508 4.53288V0L26.3114 7.79759Z" fill="#FF9500"/>
<path d="M20.8953 23.8819H4.37733C4.2182 23.8819 4.06559 23.8194 3.95307 23.708C3.84055 23.5967 3.77734 23.4457 3.77734 23.2882C3.77777 23.131 3.84116 22.9804 3.95364 22.8694C4.06611 22.7584 4.21848 22.696 4.37733 22.696H20.8953C21.054 22.696 21.2062 22.7584 21.3184 22.8694C21.4306 22.9805 21.4937 23.1311 21.4937 23.2882C21.4939 23.3661 21.4786 23.4433 21.4486 23.5153C21.4186 23.5873 21.3746 23.6527 21.319 23.7079C21.2634 23.763 21.1974 23.8068 21.1246 23.8367C21.0519 23.8665 20.974 23.8819 20.8953 23.8819Z" fill="#FF9500"/>
<path d="M20.8953 17.1944H4.37733C4.21848 17.1944 4.06611 17.1321 3.95364 17.021C3.84116 16.91 3.77777 16.7595 3.77734 16.6023C3.77734 16.4448 3.84055 16.2938 3.95307 16.1824C4.06559 16.0711 4.2182 16.0085 4.37733 16.0085H20.8953C20.974 16.0085 21.0519 16.0239 21.1246 16.0538C21.1974 16.0836 21.2634 16.1274 21.319 16.1825C21.3746 16.2377 21.4186 16.3032 21.4486 16.3752C21.4786 16.4472 21.4939 16.5244 21.4937 16.6023C21.4937 16.7593 21.4306 16.9099 21.3184 17.021C21.2062 17.132 21.054 17.1944 20.8953 17.1944Z" fill="#FF9500"/>
<path d="M20.8953 20.5382H4.37733C4.2182 20.5382 4.06559 20.4756 3.95307 20.3643C3.84055 20.2529 3.77734 20.1019 3.77734 19.9444C3.77777 19.7872 3.84116 19.6366 3.95364 19.5256C4.06611 19.4146 4.21848 19.3523 4.37733 19.3523H20.8953C21.054 19.3523 21.2062 19.4147 21.3184 19.5257C21.4306 19.6368 21.4937 19.7874 21.4937 19.9444C21.4939 20.0223 21.4786 20.0995 21.4486 20.1715C21.4186 20.2436 21.3746 20.309 21.319 20.3642C21.2634 20.4193 21.1974 20.4631 21.1246 20.4929C21.0519 20.5228 20.974 20.5382 20.8953 20.5382Z" fill="#FF9500"/>
<path d="M14.3803 13.8504H4.37733C4.21848 13.8504 4.06611 13.7881 3.95364 13.6771C3.84116 13.5661 3.77777 13.4155 3.77734 13.2583C3.77734 13.1008 3.84055 12.9498 3.95307 12.8385C4.06559 12.7271 4.2182 12.6646 4.37733 12.6646H14.3803C14.5391 12.665 14.6913 12.7277 14.8035 12.839C14.9157 12.9503 14.9786 13.1011 14.9786 13.2583C14.9782 13.4152 14.915 13.5656 14.8029 13.6765C14.6908 13.7875 14.5388 13.85 14.3803 13.8504Z" fill="#FF9500"/>
<path d="M14.3803 10.5067H4.37733C4.21848 10.5067 4.06611 10.4443 3.95364 10.3333C3.84116 10.2223 3.77777 10.0717 3.77734 9.91453C3.77734 9.75706 3.84055 9.60601 3.95307 9.49467C4.06559 9.38332 4.2182 9.3208 4.37733 9.3208H14.3803C14.5391 9.32122 14.6913 9.38395 14.8035 9.49525C14.9157 9.60655 14.9786 9.75733 14.9786 9.91453C14.9782 10.0714 14.915 10.2218 14.8029 10.3328C14.6908 10.4437 14.5388 10.5062 14.3803 10.5067Z" fill="#FF9500"/>
<path d="M29.4309 27.0122H9.425C8.00589 27.0122 6.85547 28.1506 6.85547 29.5549V35.4574C6.85547 36.8617 8.00589 38.0001 9.425 38.0001H29.4309C30.85 38.0001 32.0004 36.8617 32.0004 35.4574V29.5549C32.0004 28.1506 30.85 27.0122 29.4309 27.0122Z" fill="#FF9500"/>
<path d="M13.418 33.7837V34.9347H12.2148V33.7837H13.418Z" fill="white"/>
<path d="M15.1866 33.2644V34.9347H14.0234V30.1738H15.9082C16.4794 30.1738 16.9162 30.3147 17.2154 30.595C17.3667 30.7422 17.4849 30.9194 17.5622 31.1151C17.6394 31.3107 17.6738 31.5204 17.6633 31.7302C17.6692 32.007 17.6001 32.2803 17.4633 32.5218C17.3237 32.7579 17.1166 32.948 16.8682 33.068C16.5685 33.2082 16.2395 33.276 15.9082 33.266L15.1866 33.2644ZM16.4794 31.7302C16.4794 31.3079 16.2458 31.0968 15.7786 31.0968H15.1866V32.3366H15.7786C16.2458 32.3408 16.4794 32.1386 16.4794 31.7302Z" fill="white"/>
<path d="M22.2622 33.787C22.0619 34.147 21.7592 34.4409 21.3918 34.6325C20.9784 34.8419 20.5186 34.9458 20.0542 34.9348H18.2383V30.174H20.0542C20.5189 30.1624 20.9794 30.2641 21.395 30.47C21.7614 30.6574 22.0633 30.9484 22.2622 31.306C22.4703 31.6856 22.5751 32.1123 22.5662 32.5441C22.5748 32.9774 22.4701 33.4056 22.2622 33.787ZM21.011 33.5479C21.1411 33.4158 21.2418 33.2583 21.3069 33.0854C21.3719 32.9126 21.3997 32.7282 21.3886 32.5441C21.3998 32.3603 21.372 32.1761 21.3069 32.0035C21.2419 31.8309 21.1411 31.6737 21.011 31.5419C20.72 31.2892 20.3399 31.1606 19.9534 31.1841H19.4015V33.9041H19.9534C20.3395 33.9274 20.7194 33.7994 21.011 33.5479Z" fill="white"/>
<path d="M26.3602 30.1738V31.0905H24.3874V32.1339H25.9106V33.0094H24.3874V34.9347H23.2227V30.1738H26.3602Z" fill="white"/>
<path d="M20.6043 9.3208H17.7756C17.2825 9.3208 16.8828 9.71634 16.8828 10.2043V13.0035C16.8828 13.4914 17.2825 13.8869 17.7756 13.8869H20.6043C21.0974 13.8869 21.4971 13.4914 21.4971 13.0035V10.2043C21.4971 9.71634 21.0974 9.3208 20.6043 9.3208Z" fill="#FF9500"/>
</svg>
