<svg width="61" height="60" viewBox="0 0 61 60" fill="none" xmlns="http://www.w3.org/2000/svg">
<path d="M45.6878 3.88501L56.1203 14.76V56.115H17.1484V56.25H56.2534V14.8969L45.6878 3.88501Z" fill="#909090"/>
<path d="M45.5578 3.75H17.0146V56.115H56.1196V14.7619L45.5578 3.75Z" fill="#F4F4F4"/>
<path d="M16.7283 6.5625H4.74707V19.3631H42.4346V6.5625H16.7283Z" fill="#7A7B7C"/>
<path d="M42.6346 19.1457H4.99023V6.33569H42.6346V19.1457Z" fill="#DD2025"/>
<path d="M17.4721 8.50125H15.0215V17.5013H16.949V14.4656L17.3746 14.49C17.7883 14.4843 18.1982 14.4102 18.5877 14.2706C18.9302 14.1544 19.2449 13.9686 19.5121 13.725C19.7862 13.4952 20.0015 13.2034 20.1402 12.8738C20.3301 12.3276 20.3973 11.7463 20.3371 11.1713C20.3264 10.7604 20.2544 10.3534 20.1234 9.96375C20.0053 9.68214 19.8297 9.42828 19.6079 9.21842C19.3861 9.00856 19.1229 8.84731 18.8352 8.745C18.5872 8.65314 18.3301 8.58777 18.0684 8.55C17.8706 8.5178 17.6706 8.5015 17.4702 8.50125M17.1159 12.8025H16.949V10.0275H17.3109C17.4706 10.016 17.6308 10.0405 17.7798 10.0992C17.9288 10.158 18.0626 10.2494 18.1715 10.3669C18.3971 10.6688 18.5176 11.0363 18.5146 11.4131C18.5146 11.8744 18.5146 12.2925 18.0984 12.5869C17.7986 12.752 17.4572 12.8282 17.1159 12.8025ZM23.999 8.47688C23.7909 8.47688 23.5884 8.49188 23.4459 8.4975L22.9996 8.50875H21.5371V17.5088H23.2584C23.9161 17.5257 24.5708 17.4142 25.1859 17.1806C25.6811 16.9851 26.1194 16.6685 26.4609 16.26C26.7954 15.8497 27.0344 15.3699 27.1602 14.8556C27.3081 14.2742 27.38 13.6761 27.374 13.0763C27.4107 12.3678 27.3559 11.6576 27.2109 10.9631C27.0721 10.4525 26.8151 9.98175 26.4609 9.58875C26.183 9.27096 25.8412 9.01539 25.4577 8.83875C25.1293 8.6865 24.7837 8.57444 24.4284 8.505C24.2871 8.48184 24.144 8.47118 24.0009 8.47313M23.6596 15.855H23.4721V10.11H23.4965C23.883 10.0653 24.2742 10.1351 24.6215 10.3106C24.8759 10.5137 25.0831 10.7696 25.229 11.0606C25.3864 11.3669 25.4771 11.703 25.4952 12.0469C25.5121 12.4594 25.4952 12.7969 25.4952 13.0763C25.5022 13.3981 25.4815 13.7199 25.4334 14.0381C25.3744 14.3645 25.2676 14.6804 25.1165 14.9756C24.9458 15.251 24.7126 15.4822 24.4359 15.6506C24.2047 15.8006 23.9306 15.8705 23.6559 15.8494M33.1809 8.50875H28.6246V17.5088H30.5521V13.9388H32.9896V12.2663H30.5521V10.1813H33.1771V8.50875" fill="#464648"/>
<path d="M41.3393 37.9781C41.3393 37.9781 47.3168 36.8943 47.3168 38.9362C47.3168 40.9781 43.6137 40.1475 41.3393 37.9781ZM36.9199 38.1337C35.9701 38.343 35.0445 38.6503 34.158 39.0506L34.908 37.3631C35.658 35.6756 36.4362 33.375 36.4362 33.375C37.3289 34.8827 38.3703 36.2972 39.5449 37.5975C38.6607 37.7292 37.7843 37.9095 36.9199 38.1375V38.1337ZM34.5537 25.9462C34.5537 24.1668 35.1293 23.6812 35.5774 23.6812C36.0255 23.6812 36.5299 23.8968 36.5468 25.4418C36.4006 26.9954 36.0753 28.5268 35.5774 30.0056C34.8931 28.7648 34.5399 27.3687 34.5518 25.9518L34.5537 25.9462ZM25.8368 45.6637C24.003 44.5668 29.6824 41.19 30.7118 41.0812C30.7062 41.0831 27.7568 46.8112 25.8368 45.6637ZM49.0624 39.1781C49.0437 38.9906 48.8749 36.915 45.1812 37.0031C43.6415 36.9761 42.1024 37.0846 40.5818 37.3275C39.1078 35.8438 37.8391 34.1696 36.8093 32.3493C37.4577 30.473 37.8506 28.518 37.9774 26.5368C37.923 24.2868 37.3849 22.9968 35.6599 23.0156C33.9349 23.0343 33.6837 24.5437 33.9105 26.79C34.1326 28.2995 34.5518 29.7733 35.1574 31.1737C35.1574 31.1737 34.3605 33.6543 33.3068 36.1218C32.253 38.5893 31.533 39.8831 31.533 39.8831C29.7004 40.4789 27.9753 41.3652 26.4237 42.5081C24.8787 43.9462 24.2505 45.0506 25.0643 46.155C25.7655 47.1075 28.2199 47.3231 30.4137 44.4487C31.5773 42.9626 32.6421 41.4018 33.6012 39.7762C33.6012 39.7762 36.9462 38.8593 37.9868 38.6081C39.0274 38.3568 40.2855 38.1581 40.2855 38.1581C40.2855 38.1581 43.3399 41.2312 46.2855 41.1225C49.2312 41.0137 49.0887 39.3618 49.0699 39.1818" fill="#DD2025"/>
<path d="M45.4141 3.89429V14.9062H55.9759L45.4141 3.89429Z" fill="#909090"/>
<path d="M45.5586 3.75V14.7619H56.1205L45.5586 3.75Z" fill="#F4F4F4"/>
<path d="M17.3286 8.35696H14.8779V17.357H16.8129V14.3232L17.2404 14.3476C17.6541 14.3419 18.064 14.2678 18.4536 14.1282C18.796 14.012 19.1107 13.8262 19.3779 13.5826C19.6499 13.3522 19.8633 13.0604 20.0004 12.7313C20.1903 12.1852 20.2575 11.6039 20.1973 11.0288C20.1866 10.6179 20.1146 10.2109 19.9836 9.82134C19.8655 9.53973 19.6899 9.28587 19.4681 9.07601C19.2463 8.86615 18.9831 8.7049 18.6954 8.60259C18.4463 8.50983 18.1879 8.44384 17.9248 8.40571C17.7271 8.37351 17.527 8.35721 17.3267 8.35696M16.9723 12.6582H16.8054V9.88321H17.1692C17.3289 9.8717 17.4892 9.89622 17.6381 9.95496C17.7871 10.0137 17.9209 10.1052 18.0298 10.2226C18.2554 10.5245 18.3759 10.892 18.3729 11.2688C18.3729 11.7301 18.3729 12.1482 17.9567 12.4426C17.6569 12.6077 17.3155 12.682 16.9742 12.6563M23.8554 8.33259C23.6473 8.33259 23.4448 8.34759 23.3023 8.35321L22.8617 8.36446H21.3992V17.3645H23.1204C23.7781 17.3814 24.4329 17.2699 25.0479 17.0363C25.5431 16.8408 25.9815 16.5243 26.3229 16.1157C26.6575 15.7054 26.8964 15.2256 27.0223 14.7113C27.1702 14.13 27.242 13.5318 27.2361 12.932C27.2728 12.2235 27.2179 11.5133 27.0729 10.8188C26.9341 10.3083 26.6772 9.83747 26.3229 9.44447C26.045 9.12667 25.7032 8.8711 25.3198 8.69446C24.9914 8.54221 24.6457 8.43015 24.2904 8.36071C24.1491 8.33756 24.0061 8.32689 23.8629 8.32884M23.5217 15.7107H23.3342V9.96571H23.3586C23.7451 9.92102 24.1363 9.99078 24.4836 10.1663C24.7379 10.3695 24.9452 10.6253 25.0911 10.9163C25.2485 11.2226 25.3392 11.5587 25.3573 11.9026C25.3742 12.3151 25.3573 12.6526 25.3573 12.932C25.3642 13.2538 25.3435 13.5756 25.2954 13.8938C25.2364 14.2202 25.1297 14.5361 24.9786 14.8313C24.8078 15.1067 24.5747 15.3379 24.2979 15.5063C24.0668 15.6563 23.7927 15.7262 23.5179 15.7051M33.0373 8.36446H28.4811V17.3645H30.4086V13.7945H32.8461V12.122H30.4086V10.037H33.0336V8.36446" fill="white"/>
</svg>
