<svg width="33" height="39" viewBox="0 0 33 39" fill="none" xmlns="http://www.w3.org/2000/svg">
<g opacity="0.3">
<path opacity="0.3" d="M22.8466 7.93748C21.9719 7.93665 21.1332 7.5924 20.5147 6.98033C19.8962 6.36827 19.5483 5.53836 19.5475 4.67277V0.139893H4.80548C3.66359 0.139893 2.56848 0.588786 1.76105 1.3878C0.953615 2.18681 0.5 3.27048 0.5 4.40045V30.0842C0.501696 31.2131 0.956055 32.2952 1.76331 33.0928C2.57056 33.8904 3.6647 34.3385 4.80548 34.3385H22.5026C23.6434 34.3385 24.7375 33.8904 25.5448 33.0928C26.352 32.2952 26.8064 31.2131 26.8081 30.0842V7.93748H22.8466Z" fill="#FF3E4C"/>
</g>
<path d="M26.8114 7.93749H22.8499C21.9752 7.93665 21.1365 7.5924 20.518 6.98034C19.8995 6.36827 19.5516 5.53836 19.5508 4.67277V0.139893L26.8114 7.93749Z" fill="#FF3E4C"/>
<path d="M21.3953 24.0218H4.87733C4.7182 24.0218 4.56559 23.9592 4.45307 23.8479C4.34055 23.7366 4.27734 23.5855 4.27734 23.4281C4.27777 23.2709 4.34116 23.1203 4.45364 23.0093C4.56611 22.8983 4.71848 22.8359 4.87733 22.8359H21.3953C21.554 22.8359 21.7062 22.8983 21.8184 23.0093C21.9306 23.1204 21.9937 23.271 21.9937 23.4281C21.9939 23.506 21.9786 23.5831 21.9486 23.6552C21.9186 23.7272 21.8746 23.7926 21.819 23.8478C21.7634 23.9029 21.6974 23.9467 21.6246 23.9766C21.5519 24.0064 21.474 24.0218 21.3953 24.0218Z" fill="#FF3E4C"/>
<path d="M21.3953 17.3343H4.87733C4.71848 17.3343 4.56611 17.2719 4.45364 17.1609C4.34116 17.0499 4.27777 16.8994 4.27734 16.7422C4.27734 16.5847 4.34055 16.4336 4.45307 16.3223C4.56559 16.211 4.7182 16.1484 4.87733 16.1484H21.3953C21.474 16.1484 21.5519 16.1638 21.6246 16.1937C21.6974 16.2235 21.7634 16.2673 21.819 16.3224C21.8746 16.3776 21.9186 16.443 21.9486 16.5151C21.9786 16.5871 21.9939 16.6643 21.9937 16.7422C21.9937 16.8992 21.9306 17.0498 21.8184 17.1609C21.7062 17.2719 21.554 17.3343 21.3953 17.3343Z" fill="#FF3E4C"/>
<path d="M21.3953 20.6781H4.87733C4.7182 20.6781 4.56559 20.6155 4.45307 20.5041C4.34055 20.3928 4.27734 20.2418 4.27734 20.0843C4.27777 19.9271 4.34116 19.7765 4.45364 19.6655C4.56611 19.5545 4.71848 19.4922 4.87733 19.4922H21.3953C21.554 19.4922 21.7062 19.5546 21.8184 19.6656C21.9306 19.7767 21.9937 19.9273 21.9937 20.0843C21.9939 20.1622 21.9786 20.2394 21.9486 20.3114C21.9186 20.3834 21.8746 20.4489 21.819 20.5041C21.7634 20.5592 21.6974 20.603 21.6246 20.6328C21.5519 20.6627 21.474 20.6781 21.3953 20.6781Z" fill="#FF3E4C"/>
<path d="M14.8803 13.9903H4.87733C4.71848 13.9903 4.56611 13.928 4.45364 13.817C4.34116 13.706 4.27777 13.5554 4.27734 13.3982C4.27734 13.2407 4.34055 13.0897 4.45307 12.9783C4.56559 12.867 4.7182 12.8044 4.87733 12.8044H14.8803C15.0391 12.8049 15.1913 12.8676 15.3035 12.9789C15.4157 13.0902 15.4786 13.241 15.4786 13.3982C15.4782 13.5551 15.415 13.7054 15.3029 13.8164C15.1908 13.9274 15.0388 13.9899 14.8803 13.9903Z" fill="#FF3E4C"/>
<path d="M14.8803 10.6466H4.87733C4.71848 10.6466 4.56611 10.5842 4.45364 10.4732C4.34116 10.3622 4.27777 10.2116 4.27734 10.0544C4.27734 9.89695 4.34055 9.7459 4.45307 9.63456C4.56559 9.52321 4.7182 9.46069 4.87733 9.46069H14.8803C15.0391 9.46111 15.1913 9.52384 15.3035 9.63514C15.4157 9.74644 15.4786 9.89723 15.4786 10.0544C15.4782 10.2113 15.415 10.3617 15.3029 10.4727C15.1908 10.5836 15.0388 10.6461 14.8803 10.6466Z" fill="#FF3E4C"/>
<path d="M29.9309 27.1521H9.925C8.50589 27.1521 7.35547 28.2905 7.35547 29.6948V35.5972C7.35547 37.0016 8.50589 38.14 9.925 38.14H29.9309C31.35 38.14 32.5004 37.0016 32.5004 35.5972V29.6948C32.5004 28.2905 31.35 27.1521 29.9309 27.1521Z" fill="#FF3E4C"/>
<path d="M13.918 33.9236V35.0746H12.7148V33.9236H13.918Z" fill="white"/>
<path d="M15.6866 33.4043V35.0746H14.5234V30.3137H16.4082C16.9794 30.3137 17.4162 30.4546 17.7154 30.7349C17.8667 30.8821 17.9849 31.0593 18.0622 31.255C18.1394 31.4506 18.1738 31.6603 18.1633 31.87C18.1692 32.1468 18.1001 32.4202 17.9633 32.6617C17.8237 32.8978 17.6166 33.0879 17.3682 33.2079C17.0685 33.3481 16.7395 33.4159 16.4082 33.4058L15.6866 33.4043ZM16.9794 31.87C16.9794 31.4478 16.7458 31.2367 16.2786 31.2367H15.6866V32.4765H16.2786C16.7458 32.4807 16.9794 32.2785 16.9794 31.87Z" fill="white"/>
<path d="M22.7622 33.9269C22.5619 34.2869 22.2592 34.5808 21.8918 34.7723C21.4784 34.9818 21.0186 35.0857 20.5542 35.0747H18.7383V30.3139H20.5542C21.0189 30.3023 21.4794 30.404 21.895 30.6099C22.2614 30.7973 22.5633 31.0883 22.7622 31.4459C22.9703 31.8255 23.0751 32.2522 23.0662 32.684C23.0748 33.1173 22.9701 33.5455 22.7622 33.9269ZM21.511 33.6878C21.6411 33.5557 21.7418 33.3982 21.8069 33.2253C21.8719 33.0525 21.8997 32.8681 21.8886 32.684C21.8998 32.5001 21.872 32.316 21.8069 32.1434C21.7419 31.9708 21.6411 31.8136 21.511 31.6818C21.22 31.4291 20.8399 31.3005 20.4534 31.324H19.9015V34.044H20.4534C20.8395 34.0672 21.2194 33.9393 21.511 33.6878Z" fill="white"/>
<path d="M26.8602 30.3137V31.2304H24.8874V32.2738H26.4106V33.1493H24.8874V35.0746H23.7227V30.3137H26.8602Z" fill="white"/>
<path d="M21.1043 9.46069H18.2756C17.7825 9.46069 17.3828 9.85623 17.3828 10.3442V13.1434C17.3828 13.6313 17.7825 14.0268 18.2756 14.0268H21.1043C21.5974 14.0268 21.9971 13.6313 21.9971 13.1434V10.3442C21.9971 9.85623 21.5974 9.46069 21.1043 9.46069Z" fill="#FF3E4C"/>
</svg>
